<?xml version="1.0" encoding="UTF-8"?>
<svg width="449px" height="336px" viewBox="0 0 449 336" version="1.1" xmlns="http://www.w3.org/2000/svg" xmlns:xlink="http://www.w3.org/1999/xlink">
    <!-- Generator: Sketch 48.2 (47327) - http://www.bohemiancoding.com/sketch -->
    <title>Page 1</title>
    <desc>Created with Sketch.</desc>
    <defs>
        <linearGradient x1="50.7936835%" y1="100%" x2="50.7936808%" y2="-31.8216184%" id="linearGradient-1">
            <stop stop-color="#4F82FF" offset="0%"></stop>
            <stop stop-color="#025DFF" offset="100%"></stop>
        </linearGradient>
        <polygon id="path-2" points="0 335.957705 469.425821 335.957705 469.425821 0 0 0"></polygon>
        <linearGradient x1="41.9295727%" y1="0%" x2="41.9295728%" y2="100%" id="linearGradient-4">
            <stop stop-color="#6601FD" offset="0%"></stop>
            <stop stop-color="#0049CD" offset="100%"></stop>
        </linearGradient>
        <linearGradient x1="-1.83815648%" y1="2.13349592%" x2="50%" y2="100%" id="linearGradient-5">
            <stop stop-color="#788DFF" offset="0%"></stop>
            <stop stop-color="#70A3FF" offset="100%"></stop>
        </linearGradient>
        <linearGradient x1="-5.27576964%" y1="28.9049214%" x2="107.545503%" y2="67.602023%" id="linearGradient-6">
            <stop stop-color="#5877FF" offset="0%"></stop>
            <stop stop-color="#3980FF" offset="100%"></stop>
        </linearGradient>
        <linearGradient x1="-22.3197219%" y1="50%" x2="37.2945252%" y2="50%" id="linearGradient-7">
            <stop stop-color="#A5AEFF" offset="0%"></stop>
            <stop stop-color="#8FBAFF" offset="100%"></stop>
        </linearGradient>
        <linearGradient x1="31.6588751%" y1="7.19479189%" x2="80.4516407%" y2="111.24517%" id="linearGradient-8">
            <stop stop-color="#718AFF" offset="0%"></stop>
            <stop stop-color="#558CF9" offset="100%"></stop>
        </linearGradient>
        <linearGradient x1="52.2261679%" y1="100%" x2="52.2261679%" y2="50%" id="linearGradient-9">
            <stop stop-color="#FFFA44" offset="0%"></stop>
            <stop stop-color="#FFC99F" offset="100%"></stop>
        </linearGradient>
        <linearGradient x1="38.3303782%" y1="0%" x2="73.38009%" y2="118.020643%" id="linearGradient-10">
            <stop stop-color="#718AFF" offset="0%"></stop>
            <stop stop-color="#558CF9" offset="100%"></stop>
        </linearGradient>
        <linearGradient x1="-22.3197219%" y1="50%" x2="100%" y2="50%" id="linearGradient-11">
            <stop stop-color="#A5AEFF" offset="0%"></stop>
            <stop stop-color="#8FBAFF" offset="100%"></stop>
        </linearGradient>
        <linearGradient x1="50.7936835%" y1="180.148753%" x2="50.7936808%" y2="-31.8216184%" id="linearGradient-12">
            <stop stop-color="#7D6EFF" offset="0%"></stop>
            <stop stop-color="#0243F2" offset="100%"></stop>
        </linearGradient>
        <linearGradient x1="0%" y1="0%" x2="100%" y2="100%" id="linearGradient-13">
            <stop stop-color="#7985FF" offset="0%"></stop>
            <stop stop-color="#528CFF" offset="100%"></stop>
        </linearGradient>
        <linearGradient x1="-5.27576964%" y1="28.9049214%" x2="107.545503%" y2="67.602023%" id="linearGradient-14">
            <stop stop-color="#476AFF" offset="0%"></stop>
            <stop stop-color="#3980FF" offset="100%"></stop>
        </linearGradient>
        <linearGradient x1="-22.3197219%" y1="50%" x2="42.6771833%" y2="58.1921175%" id="linearGradient-15">
            <stop stop-color="#A5AEFF" offset="0%"></stop>
            <stop stop-color="#8FBAFF" offset="100%"></stop>
        </linearGradient>
        <linearGradient x1="23.9247879%" y1="4.81711581%" x2="88.2051002%" y2="105.983143%" id="linearGradient-16">
            <stop stop-color="#718AFF" offset="0%"></stop>
            <stop stop-color="#558CF9" offset="100%"></stop>
        </linearGradient>
        <linearGradient x1="50%" y1="100%" x2="50%" y2="50%" id="linearGradient-17">
            <stop stop-color="#FFFA44" offset="0%"></stop>
            <stop stop-color="#FFC99F" offset="100%"></stop>
        </linearGradient>
        <linearGradient x1="-28.64292%" y1="0%" x2="107.911662%" y2="80.0292169%" id="linearGradient-18">
            <stop stop-color="#ADB8FF" offset="0%"></stop>
            <stop stop-color="#A7CBFC" offset="100%"></stop>
        </linearGradient>
        <linearGradient x1="3.40570046%" y1="0%" x2="3.40570062%" y2="100%" id="linearGradient-19">
            <stop stop-color="#BFD2FF" offset="0%"></stop>
            <stop stop-color="#BED9FE" offset="100%"></stop>
        </linearGradient>
        <linearGradient x1="3.40570046%" y1="0%" x2="3.40570062%" y2="100%" id="linearGradient-20">
            <stop stop-color="#9BAFFF" offset="0%"></stop>
            <stop stop-color="#80ACFE" offset="100%"></stop>
        </linearGradient>
        <linearGradient x1="11.9335242%" y1="-29.2234169%" x2="11.9335242%" y2="100%" id="linearGradient-21">
            <stop stop-color="#788DFF" offset="0%"></stop>
            <stop stop-color="#70A3FF" offset="100%"></stop>
        </linearGradient>
        <linearGradient x1="0%" y1="19.7198896%" x2="95.2022881%" y2="107.626473%" id="linearGradient-22">
            <stop stop-color="#687DFD" offset="0%"></stop>
            <stop stop-color="#518EFD" offset="100%"></stop>
        </linearGradient>
        <linearGradient x1="11.9335242%" y1="-74.3788145%" x2="11.9335242%" y2="100%" id="linearGradient-23">
            <stop stop-color="#656DFF" offset="0%"></stop>
            <stop stop-color="#4B7CFF" offset="100%"></stop>
        </linearGradient>
        <linearGradient x1="50.7936835%" y1="128.8539%" x2="50.7936808%" y2="-31.8216184%" id="linearGradient-24">
            <stop stop-color="#4F82FF" offset="0%"></stop>
            <stop stop-color="#004ACD" offset="100%"></stop>
        </linearGradient>
        <linearGradient x1="-24.9436762%" y1="57.1626127%" x2="105.132972%" y2="57.1626127%" id="linearGradient-25">
            <stop stop-color="#FFFA44" offset="0%"></stop>
            <stop stop-color="#FFC99F" offset="100%"></stop>
        </linearGradient>
        <linearGradient x1="-46.5000369%" y1="0%" x2="100%" y2="83.492057%" id="linearGradient-26">
            <stop stop-color="#771BFF" offset="0%"></stop>
            <stop stop-color="#0013F1" offset="100%"></stop>
        </linearGradient>
        <linearGradient x1="-1.23191288%" y1="21.0999057%" x2="15.9833238%" y2="100%" id="linearGradient-27">
            <stop stop-color="#A5BFFF" offset="0%"></stop>
            <stop stop-color="#8FA9FF" offset="100%"></stop>
        </linearGradient>
        <linearGradient x1="3.88831314%" y1="9.64101582%" x2="100%" y2="77.0310757%" id="linearGradient-28">
            <stop stop-color="#819EFF" offset="0%"></stop>
            <stop stop-color="#6A9DFF" offset="100%"></stop>
        </linearGradient>
        <linearGradient x1="27.9910743%" y1="-5.73089892%" x2="27.9910744%" y2="37.9284806%" id="linearGradient-29">
            <stop stop-color="#6080FF" offset="0%"></stop>
            <stop stop-color="#3E7FFF" offset="100%"></stop>
        </linearGradient>
        <linearGradient x1="0%" y1="17.9705398%" x2="100%" y2="100%" id="linearGradient-30">
            <stop stop-color="#898DFF" offset="0%"></stop>
            <stop stop-color="#6E91FF" offset="100%"></stop>
        </linearGradient>
        <linearGradient x1="17.2418594%" y1="0%" x2="17.2418594%" y2="100%" id="linearGradient-31">
            <stop stop-color="#9AAEFA" offset="0%"></stop>
            <stop stop-color="#82A5FF" offset="100%"></stop>
        </linearGradient>
        <linearGradient x1="0%" y1="37.7134115%" x2="74.9925278%" y2="100%" id="linearGradient-32">
            <stop stop-color="#BFD2FF" offset="0%"></stop>
            <stop stop-color="#BED9FE" offset="100%"></stop>
        </linearGradient>
        <linearGradient x1="0%" y1="18.917778%" x2="100%" y2="50%" id="linearGradient-33">
            <stop stop-color="#A5BCFF" offset="0%"></stop>
            <stop stop-color="#8BB7FD" offset="100%"></stop>
        </linearGradient>
        <linearGradient x1="-8.34751796%" y1="3.92357053%" x2="109.985098%" y2="92.1068882%" id="linearGradient-34">
            <stop stop-color="#718AFF" offset="0%"></stop>
            <stop stop-color="#558CF9" offset="100%"></stop>
        </linearGradient>
        <linearGradient x1="0%" y1="57.162611%" x2="105.132972%" y2="57.1626127%" id="linearGradient-35">
            <stop stop-color="#BFC6FF" offset="0%"></stop>
            <stop stop-color="#88B0FF" offset="100%"></stop>
        </linearGradient>
        <linearGradient x1="47.1622427%" y1="-23.2824267%" x2="47.1622437%" y2="129.965206%" id="linearGradient-36">
            <stop stop-color="#6601FD" offset="0%"></stop>
            <stop stop-color="#0049CD" offset="100%"></stop>
        </linearGradient>
        <linearGradient x1="3.40570046%" y1="0%" x2="3.40570062%" y2="96.0120376%" id="linearGradient-37">
            <stop stop-color="#F6F9FF" offset="0%"></stop>
            <stop stop-color="#ECF4FF" offset="100%"></stop>
        </linearGradient>
        <linearGradient x1="-7.19005837%" y1="-193.864673%" x2="88.0212606%" y2="137.808947%" id="linearGradient-38">
            <stop stop-color="#FFE56B" offset="0%"></stop>
            <stop stop-color="#FFE865" offset="100%"></stop>
        </linearGradient>
    </defs>
    <g id="Kitchen-Landing-Page-" stroke="none" stroke-width="1" fill="none" fill-rule="evenodd" transform="translate(-820.000000, -176.000000)">
        <g id="Page-1" transform="translate(820.000000, 176.000000)">
            <g id="架子横杆">
                <path d="M37.7007597,134.820935 C37.7007597,137.97831 35.1384247,140.538215 31.9780525,140.538215 C28.8176802,140.538215 26.2553452,137.97831 26.2553452,134.820935 C26.2553452,131.66356 28.8176802,129.103656 31.9780525,129.103656 C35.1384247,129.103656 37.7007597,131.66356 37.7007597,134.820935" id="Fill-25" fill="url(#linearGradient-1)"></path>
                <path d="M308.756281,134.820935 C308.756281,137.97831 306.194741,140.538215 303.034369,140.538215 C299.873997,140.538215 297.311662,137.97831 297.311662,134.820935 C297.311662,131.66356 299.873997,129.103656 303.034369,129.103656 C306.194741,129.103656 308.756281,131.66356 308.756281,134.820935" id="Fill-27" fill="url(#linearGradient-1)"></path>
                <mask id="mask-3" fill="white">
                    <use xlink:href="#path-2"></use>
                </mask>
                <g id="Clip-30"></g>
                <path d="M290.762216,132.466729 C291.342797,131.846131 292.169492,131.458339 293.086831,131.458339 L302.209284,131.458339 C303.966019,131.458339 305.390333,132.880508 305.390333,134.636371 L305.390333,135.005817 C305.390333,136.760885 303.966019,138.183849 302.209284,138.183849 L293.086831,138.183849 C292.169411,138.183849 291.342649,137.795772 290.762061,137.174983 L44.2499632,137.174983 C43.6693743,137.795772 42.8426131,138.183849 41.9251929,138.183849 L32.8027394,138.183849 C31.0460051,138.183849 29.6216904,136.760885 29.6216904,135.005817 L29.6216904,134.636371 C29.6216904,132.880508 31.0460051,131.458339 32.8027394,131.458339 L41.9251929,131.458339 C42.8425313,131.458339 43.6692268,131.846131 44.2498078,132.466729 L290.762216,132.466729 Z" id="Combined-Shape" fill="url(#linearGradient-4)" mask="url(#mask-3)"></path>
            </g>
            <g id="油烟机" transform="translate(60.676230, 12.520492)">
                <path d="M25.2432964,53.1770498 C23.4841622,53.1770498 22.0579018,51.7464942 22.0579018,49.9820624 L22.0579018,6.33534039 C22.0579018,4.57010989 23.4841622,3.14035306 25.2432964,3.14035306 L109.882416,3.14035306 C111.64155,3.14035306 113.06781,4.57010989 113.06781,6.33534039 L113.06781,49.9820624 C113.06781,51.7464942 111.64155,53.1770498 109.882416,53.1770498 L25.2432964,53.1770498 Z" id="Fill-69" fill="url(#linearGradient-5)"></path>
                <path d="M50.5917904,50.7808093 C48.8318599,50.7808093 47.4063959,49.3502537 47.4063959,47.5858219 L47.4063959,3.93909989 C47.4063959,2.17386939 48.8318599,0.744112551 50.5917904,0.744112551 L110.286881,0.744112551 C112.046015,0.744112551 113.472276,2.17386939 113.472276,3.93909989 L113.472276,47.5858219 C113.472276,49.3502537 112.046015,50.7808093 110.286881,50.7808093 L50.5917904,50.7808093 Z" id="Fill-70" fill="url(#linearGradient-6)"></path>
                <path d="M132.280916,112.602616 L2.84479626,112.602616 C0.920817937,112.602616 -0.38439749,110.639296 0.3554104,108.857292 L22.6667104,55.1495551 C23.0855897,54.1423353 24.0674876,53.4857654 25.1560962,53.4857654 L109.969616,53.4857654 C111.058224,53.4857654 112.040122,54.1423353 112.459002,55.1495551 L134.769505,108.857292 C135.51011,110.639296 134.204894,112.602616 132.280916,112.602616" id="Fill-71" fill="url(#linearGradient-7)"></path>
                <path d="M132.280916,112.602616 L29.810754,112.602616 C27.8867757,112.602616 26.5815603,110.639296 27.3213682,108.857292 L49.6326681,55.1495551 C50.0515475,54.1423353 51.0334454,53.4857654 52.1212576,53.4857654 L109.969616,53.4857654 C111.058224,53.4857654 112.040122,54.1423353 112.459002,55.1495551 L134.769505,108.857292 C135.51011,110.639296 134.204894,112.602616 132.280916,112.602616" id="Fill-72" fill="url(#linearGradient-8)"></path>
                <path d="M113.834614,60.9234563 L21.2909384,60.9234563 C20.4117695,60.9234563 19.6982411,60.2077792 19.6982411,59.3259626 L19.6982411,58.4641148 C19.6982411,57.5814996 20.4117695,56.8666211 21.2909384,56.8666211 L113.834614,56.8666211 C114.713783,56.8666211 115.427312,57.5814996 115.427312,58.4641148 L115.427312,59.3259626 C115.427312,60.2077792 114.713783,60.9234563 113.834614,60.9234563" id="Fill-73" fill="url(#linearGradient-5)"></path>
                <path d="M113.901906,60.9234563 L48.998695,60.9234563 C48.1187297,60.9234563 47.4059977,60.2077792 47.4059977,59.3259626 L47.4059977,58.4641148 C47.4059977,57.5814996 48.1187297,56.8666211 48.998695,56.8666211 L113.901906,56.8666211 C114.781075,56.8666211 115.494603,57.5814996 115.494603,58.4641148 L115.494603,59.3259626 C115.494603,60.2077792 114.781075,60.9234563 113.901906,60.9234563" id="Fill-74" fill="url(#linearGradient-6)"></path>
                <path d="M13.8578202,57.3503422 C10.7544495,57.3503422 8.23798782,54.8263022 8.23798782,51.7135858 C8.23798782,48.6000707 10.7544495,46.0768294 13.8578202,46.0768294 L121.267733,46.0768294 C124.371103,46.0768294 126.887565,48.6000707 126.887565,51.7135858 C126.887565,54.8263022 124.371103,57.3503422 121.267733,57.3503422 L13.8578202,57.3503422 Z" id="Fill-75" fill="url(#linearGradient-9)"></path>
                <path d="M125.539586,54.161665 L9.58644497,54.161665 C5.86271872,54.161665 2.84455736,51.1344145 2.84455736,47.400273 C2.84455736,43.6653328 5.86271872,40.6380823 9.58644497,40.6380823 L125.539586,40.6380823 C129.262516,40.6380823 132.280677,43.6653328 132.280677,47.400273 C132.280677,51.1344145 129.262516,54.161665 125.539586,54.161665" id="Fill-76" fill="url(#linearGradient-10)"></path>
                <path d="M25.8330722,54.161665 L9.6536568,54.161665 C5.93072689,54.161665 2.91256553,51.1344145 2.91256553,47.400273 C2.91256553,43.6653328 5.93072689,40.6380823 9.6536568,40.6380823 L25.8330722,40.6380823 C29.5567985,40.6380823 32.5749598,43.6653328 32.5749598,47.400273 C32.5749598,51.1344145 29.5567985,54.161665 25.8330722,54.161665" id="Fill-79" fill="url(#linearGradient-11)"></path>
            </g>
            <g id="管道">
                <path d="M1.01057777,22.4790533 C1.01057777,25.6262441 2.82006898,28.1776565 5.0520931,28.1776565 L441.559621,28.1776565 C443.791645,28.1776565 445.601136,25.6262441 445.601136,22.4790533 L445.601136,4.99992075 C445.601136,2.238497 443.36256,-7.92511201e-05 440.601136,-7.92511201e-05 L7.01057777,-7.92511201e-05 C3.69686927,-7.92511201e-05 1.01057777,2.68621225 1.01057777,5.99992075 L1.01057777,22.4790533 Z" id="Fill-80" fill="url(#linearGradient-12)"></path>
                <path d="M47.3094422,28.1779735 L4.98930996,28.1779735 C2.352259,28.1779735 0.214926815,26.0492884 0.214926815,23.4229063 L0.214926815,4.75530496 C0.214926815,2.12892284 2.352259,0.00023775336 4.98930996,0.00023775336 L47.3094422,0.00023775336 C49.9456974,0.00023775336 52.0838253,2.12892284 52.0838253,4.75530496 L52.0838253,23.4229063 C52.0838253,26.0492884 49.9456974,28.1779735 47.3094422,28.1779735" id="Fill-82" fill="url(#linearGradient-13)"></path>
            </g>
            <g id="油烟机" transform="translate(260.040984, 0.000000)">
                <path d="M25.7178933,62.9970713 C23.9577636,62.9970713 22.530696,61.5716252 22.530696,59.8134956 L22.530696,0.000474997898 C23.4820744,0.000474997898 24.5444735,0.000474997898 25.7178933,0.000474997898 L110.404912,0.000474997898 C112.165042,0.000474997898 113.59211,1.42592102 113.59211,3.18405071 L113.59211,59.8134956 C113.59211,61.5716252 112.165042,62.9970713 110.404912,62.9970713 L25.7178933,62.9970713 Z" id="Fill-84" fill="url(#linearGradient-5)"></path>
                <path d="M51.0806532,62.9970713 C49.3197267,62.9970713 47.8934559,61.5716252 47.8934559,59.8134956 L47.8934559,0.000474997898 C48.8443031,0.000474997898 49.9067022,0.000474997898 51.0806532,0.000474997898 L110.809527,0.000474997898 C111.982947,0.000474997898 113.045346,0.000474997898 113.996724,0.000474997898 L113.996724,59.8134956 C113.996724,61.5716252 112.569657,62.9970713 110.809527,62.9970713 L51.0806532,62.9970713 Z" id="Fill-85" fill="url(#linearGradient-14)"></path>
                <path d="M132.816089,124.270613 L3.30671719,124.270613 C1.38165002,124.270613 0.0756959356,122.324705 0.815922506,120.558504 L23.1398491,67.3270729 C23.5589656,66.3287857 24.5414191,65.6780386 25.629847,65.6780386 L110.492162,65.6780386 C111.581387,65.6780386 112.56384,66.3287857 112.982957,67.3270729 L135.306086,120.558504 C136.04711,122.324705 134.741156,124.270613 132.816089,124.270613" id="Fill-86" fill="url(#linearGradient-15)"></path>
                <path d="M132.816089,124.270613 L30.2879358,124.270613 C28.3628687,124.270613 27.0569146,122.324705 27.7971412,120.558504 L50.1210678,67.3270729 C50.5401842,66.3287857 51.5226378,65.6780386 52.6110656,65.6780386 L110.492162,65.6780386 C111.581387,65.6780386 112.56384,66.3287857 112.982957,67.3270729 L135.306086,120.558504 C136.04711,122.324705 134.741156,124.270613 132.816089,124.270613" id="Fill-87" fill="url(#linearGradient-16)"></path>
                <path d="M114.359348,73.0497685 L21.7640954,73.0497685 C20.8836322,73.0497685 20.1704968,72.3404383 20.1704968,71.4664421 L20.1704968,70.6122376 C20.1704968,69.7374498 20.8836322,69.0289113 21.7640954,69.0289113 L114.359348,69.0289113 C115.239014,69.0289113 115.952946,69.7374498 115.952946,70.6122376 L115.952946,71.4664421 C115.952946,72.3404383 115.239014,73.0497685 114.359348,73.0497685" id="Fill-88" fill="url(#linearGradient-5)"></path>
                <path d="M114.426598,73.0497685 L48.0293102,73.0497685 C47.1488469,73.0497685 46.4357115,72.3404383 46.4357115,71.4664421 L46.4357115,70.6122376 C46.4357115,69.7374498 47.1488469,69.0289113 48.0293102,69.0289113 L114.426598,69.0289113 C115.306264,69.0289113 116.020196,69.7374498 116.020196,70.6122376 L116.020196,71.4664421 C116.020196,72.3404383 115.306264,73.0497685 114.426598,73.0497685" id="Fill-89" fill="url(#linearGradient-6)"></path>
                <path d="M121.796673,69.5083425 L14.3259737,69.5083425 C11.2208468,69.5083425 8.70296092,67.0066869 8.70296092,63.9215755 C8.70296092,60.8356725 11.2208468,58.3348086 14.3259737,58.3348086 L121.796673,58.3348086 C124.9018,58.3348086 127.419686,60.8356725 127.419686,63.9215755 C127.419686,67.0066869 124.9018,69.5083425 121.796673,69.5083425" id="Fill-90" fill="url(#linearGradient-17)"></path>
                <path d="M126.070864,66.3479439 L10.0521015,66.3479439 C6.3270647,66.3479439 3.30639847,63.3475406 3.30639847,59.6465153 C3.30639847,55.9446983 6.3270647,52.9442949 10.0521015,52.9442949 L126.070864,52.9442949 C129.7959,52.9442949 132.81577,55.9446983 132.81577,59.6465153 C132.81577,63.3475406 129.7959,66.3479439 126.070864,66.3479439" id="Fill-91" fill="url(#linearGradient-10)"></path>
                <path d="M26.3079232,66.3479439 L10.1193514,66.3479439 C6.39431456,66.3479439 3.37444513,63.3475406 3.37444513,59.6465153 C3.37444513,55.9446983 6.39431456,52.9442949 10.1193514,52.9442949 L26.3079232,52.9442949 C30.0337568,52.9442949 33.0536263,55.9446983 33.0536263,59.6465153 C33.0536263,63.3475406 30.0337568,66.3479439 26.3079232,66.3479439" id="Fill-94" fill="url(#linearGradient-11)"></path>
            </g>
            <g id="桌子" transform="translate(0.000000, 249.446721)">
                <polygon id="Fill-95" fill="url(#linearGradient-18)" points="8.85190373 15.4546985 8.85190373 24.7578148 61.4961589 78.6969441 61.4961589 12.8725607"></polygon>
                <path d="M441.965983,9.86532931 L4.71576267,9.86532931 C2.11172321,9.86532931 0.000318342233,7.7710427 0.000318342233,5.18732612 C0.000318342233,2.60439894 2.11172321,0.509322926 4.71576267,0.509322926 L441.965983,0.509322926 C444.570022,0.509322926 446.682223,2.60439894 446.682223,5.18732612 C446.682223,7.7710427 444.570022,9.86532931 441.965983,9.86532931" id="Fill-96" fill="url(#linearGradient-19)"></path>
                <polygon id="Fill-97" fill="url(#linearGradient-20)" points="8.8515058 15.8796342 438.016629 15.8796342 438.016629 9.86517143 8.8515058 9.86517143"></polygon>
                <polygon id="Fill-98" fill="url(#linearGradient-19)" points="8.85190373 78.6967073 61.4961589 78.6967073 8.85190373 24.757578"></polygon>
                <path d="M442.152929,9.86532931 L54.0857884,9.86532931 C51.480953,9.86532931 49.3695482,7.7710427 49.3695482,5.18732612 C49.3695482,2.60439894 51.480953,0.509322926 54.0857884,0.509322926 L442.152929,0.509322926 C444.757765,0.509322926 446.86917,2.60439894 446.86917,5.18732612 C446.86917,7.7710427 444.757765,9.86532931 442.152929,9.86532931" id="Fill-99" fill="url(#linearGradient-21)"></path>
                <polygon id="Fill-100" fill="url(#linearGradient-22)" points="61.4965568 78.6963916 166.598041 78.6963916 166.598041 14.2092571 61.4965568 14.2092571"></polygon>
                <polygon id="Fill-101" fill="url(#linearGradient-23)" points="61.4965568 15.8796342 166.598041 15.8796342 166.598041 9.86517143 61.4965568 9.86517143"></polygon>
                <path d="M144.558492,67.6704028 L84.0408375,67.6704028 C81.4041679,67.6704028 79.265704,65.5500658 79.265704,62.9339837 L79.265704,41.6666729 C79.265704,39.0505908 81.4041679,36.9302539 84.0408375,36.9302539 L144.558492,36.9302539 C147.195957,36.9302539 149.333625,39.0505908 149.333625,41.6666729 L149.333625,62.9339837 C149.333625,65.5500658 147.195957,67.6704028 144.558492,67.6704028" id="Fill-102" fill="url(#linearGradient-24)"></path>
                <path d="M87.6878457,46.2858655 C86.5712603,46.2858655 85.6663725,45.3883141 85.6663725,44.2807815 C85.6663725,43.1740382 86.5712603,42.2764868 87.6878457,42.2764868 L140.91228,42.2764868 C142.028069,42.2764868 142.933753,43.1740382 142.933753,44.2807815 C142.933753,45.3883141 142.028069,46.2858655 140.91228,46.2858655 L87.6878457,46.2858655 Z" id="Fill-103" fill="url(#linearGradient-25)"></path>
                <path d="M140.91228,54.3050177 L87.6878457,54.3050177 C86.5712603,54.3050177 85.6663725,53.4074663 85.6663725,52.2999336 C85.6663725,51.1931904 86.5712603,50.295639 87.6878457,50.295639 L140.91228,50.295639 C142.028069,50.295639 142.933753,51.1931904 142.933753,52.2999336 C142.933753,53.4074663 142.028069,54.3050177 140.91228,54.3050177" id="Fill-104" fill="url(#linearGradient-25)"></path>
                <path d="M140.91228,62.3241698 L87.6878457,62.3241698 C86.5712603,62.3241698 85.6663725,61.4266184 85.6663725,60.3190857 C85.6663725,59.2123425 86.5712603,58.3147911 87.6878457,58.3147911 L140.91228,58.3147911 C142.028069,58.3147911 142.933753,59.2123425 142.933753,60.3190857 C142.933753,61.4266184 142.028069,62.3241698 140.91228,62.3241698" id="Fill-105" fill="url(#linearGradient-25)"></path>
                <path d="M83.7295784,23.2862884 C83.7295784,20.5675839 81.5457507,18.3596232 78.8239246,18.2814723 L78.8239246,18.2743677 L75.6444815,18.2743677 L75.6444815,19.2832249 C74.4196598,20.1981432 73.6238042,21.6482768 73.6238042,23.2862884 C73.6238042,24.9243 74.4196598,26.3744336 75.6444815,27.2893519 L75.6444815,28.2982091 L78.8239246,28.2982091 L78.8239246,28.2911045 C81.5457507,28.2129536 83.7295784,26.0049929 83.7295784,23.2862884" id="Fill-106" fill="url(#linearGradient-26)"></path>
                <path d="M81.0346522,23.2862884 C81.0346522,26.0547253 78.7720348,28.2982091 75.9817651,28.2982091 C73.1914954,28.2982091 70.928878,26.0547253 70.928878,23.2862884 C70.928878,20.5186409 73.1914954,18.2743677 75.9817651,18.2743677 C78.7720348,18.2743677 81.0346522,20.5186409 81.0346522,23.2862884" id="Fill-107" fill="url(#linearGradient-1)"></path>
                <path d="M75.6447203,23.3976732 C75.2730557,23.3976732 74.9706306,23.0984894 74.9706306,22.7290487 L74.9706306,20.0561296 C74.9706306,19.6874783 75.2730557,19.3882945 75.6447203,19.3882945 C76.0171807,19.3882945 76.3188099,19.6874783 76.3188099,20.0561296 L76.3188099,22.7290487 C76.3188099,23.0984894 76.0171807,23.3976732 75.6447203,23.3976732" id="Fill-108" fill="url(#linearGradient-25)"></path>
                <path d="M108.432936,23.2862884 C108.432936,20.5675839 106.249108,18.3596232 103.527282,18.2814723 L103.527282,18.2743677 L100.347839,18.2743677 L100.347839,19.2832249 C99.1230171,20.1981432 98.3271615,21.6482768 98.3271615,23.2862884 C98.3271615,24.9243 99.1230171,26.3744336 100.347839,27.2893519 L100.347839,28.2982091 L103.527282,28.2982091 L103.527282,28.2911045 C106.249108,28.2129536 108.432936,26.0049929 108.432936,23.2862884" id="Fill-109" fill="url(#linearGradient-26)"></path>
                <path d="M105.73801,23.2862884 C105.73801,26.0547253 103.475392,28.2982091 100.685122,28.2982091 C97.8948527,28.2982091 95.6322353,26.0547253 95.6322353,23.2862884 C95.6322353,20.5186409 97.8948527,18.2743677 100.685122,18.2743677 C103.475392,18.2743677 105.73801,20.5186409 105.73801,23.2862884" id="Fill-110" fill="url(#linearGradient-1)"></path>
                <path d="M100.348078,23.3976732 C99.976413,23.3976732 99.6739879,23.0984894 99.6739879,22.7290487 L99.6739879,20.0561296 C99.6739879,19.6874783 99.976413,19.3882945 100.348078,19.3882945 C100.720538,19.3882945 101.022167,19.6874783 101.022167,20.0561296 L101.022167,22.7290487 C101.022167,23.0984894 100.720538,23.3976732 100.348078,23.3976732" id="Fill-111" fill="url(#linearGradient-25)"></path>
                <path d="M133.136293,23.2862884 C133.136293,20.5675839 130.952465,18.3596232 128.230639,18.2814723 L128.230639,18.2743677 L125.051196,18.2743677 L125.051196,19.2832249 C123.826374,20.1981432 123.030519,21.6482768 123.030519,23.2862884 C123.030519,24.9243 123.826374,26.3744336 125.051196,27.2893519 L125.051196,28.2982091 L128.230639,28.2982091 L128.230639,28.2911045 C130.952465,28.2129536 133.136293,26.0049929 133.136293,23.2862884" id="Fill-112" fill="url(#linearGradient-26)"></path>
                <path d="M130.441367,23.2862884 C130.441367,26.0547253 128.178749,28.2982091 125.38848,28.2982091 C122.59821,28.2982091 120.335593,26.0547253 120.335593,23.2862884 C120.335593,20.5186409 122.59821,18.2743677 125.38848,18.2743677 C128.178749,18.2743677 130.441367,20.5186409 130.441367,23.2862884" id="Fill-113" fill="url(#linearGradient-1)"></path>
                <path d="M125.051514,23.3976732 C124.679054,23.3976732 124.377425,23.0984894 124.377425,22.7290487 L124.377425,20.0561296 C124.377425,19.6874783 124.679054,19.3882945 125.051514,19.3882945 C125.423975,19.3882945 125.725604,19.6874783 125.725604,20.0561296 L125.725604,22.7290487 C125.725604,23.0984894 125.423975,23.3976732 125.051514,23.3976732" id="Fill-114" fill="url(#linearGradient-25)"></path>
                <path d="M157.83973,23.2862884 C157.83973,20.5675839 155.655902,18.3596232 152.934076,18.2814723 L152.934076,18.2743677 L149.754633,18.2743677 L149.754633,19.2832249 C148.529811,20.1981432 147.733956,21.6482768 147.733956,23.2862884 C147.733956,24.9243 148.529811,26.3744336 149.754633,27.2893519 L149.754633,28.2982091 L152.934076,28.2982091 L152.934076,28.2911045 C155.655902,28.2129536 157.83973,26.0049929 157.83973,23.2862884" id="Fill-115" fill="url(#linearGradient-26)"></path>
                <path d="M155.144804,23.2862884 C155.144804,26.0547253 152.882186,28.2982091 150.091917,28.2982091 C147.300851,28.2982091 145.03903,26.0547253 145.03903,23.2862884 C145.03903,20.5186409 147.300851,18.2743677 150.091917,18.2743677 C152.882186,18.2743677 155.144804,20.5186409 155.144804,23.2862884" id="Fill-116" fill="url(#linearGradient-1)"></path>
                <path d="M149.754872,23.3976732 C149.382411,23.3976732 149.080782,23.0984894 149.080782,22.7290487 L149.080782,20.0561296 C149.080782,19.6874783 149.382411,19.3882945 149.754872,19.3882945 C150.126536,19.3882945 150.428961,19.6874783 150.428961,20.0561296 L150.428961,22.7290487 C150.428961,23.0984894 150.126536,23.3976732 149.754872,23.3976732" id="Fill-117" fill="url(#linearGradient-25)"></path>
                <polygon id="Fill-118" fill="#999999" points="438.016629 78.6963916 438.11054 78.6963916 438.11054 9.86517143 438.016629 9.86517143"></polygon>
                <polygon id="Fill-120" fill="url(#linearGradient-27)" points="165.830836 78.6963916 437.923514 78.6963916 437.923514 15.8796342 165.830836 15.8796342"></polygon>
                <polygon id="Fill-121" fill="url(#linearGradient-28)" points="165.830916 15.4546985 165.830916 24.7578148 218.475171 78.6969441 218.475171 12.8725607"></polygon>
                <polygon id="Fill-122" fill="#C1C1C1" points="438.016629 15.8796342 438.11054 15.8796342 438.11054 9.86517143 438.016629 9.86517143"></polygon>
                <path d="M332.334966,15.8796342 L332.334966,78.6963916 L218.475091,78.6963916 L218.475091,15.8796342 L165.831632,15.8796342 L165.831632,9.86517143 L369.390798,9.86517143 L369.390798,15.8796342 L332.334966,15.8796342 Z" id="Combined-Shape" fill="url(#linearGradient-29)"></path>
                <path d="M339.07252,9.86532931 L206.347685,9.86532931 C203.743645,9.86532931 201.63224,7.7710427 201.63224,5.18732612 C201.63224,2.60439894 203.743645,0.509322926 206.347685,0.509322926 L339.07252,0.509322926 C341.677356,0.509322926 343.788761,2.60439894 343.788761,5.18732612 C343.788761,7.7710427 341.677356,9.86532931 339.07252,9.86532931" id="Fill-125" fill="url(#linearGradient-21)"></path>
                <path d="M270.724523,16.8821762 L228.244139,16.8821762 C227.442713,16.8821762 226.731218,17.2358288 226.237787,17.7860429 L269.997906,38.9349432 L270.724523,38.9349432 C272.212773,38.9349432 273.41929,37.738208 273.41929,36.2620241 L273.41929,19.5550954 C273.41929,18.0789114 272.212773,16.8821762 270.724523,16.8821762" id="Fill-126" fill="url(#linearGradient-30)"></path>
                <path d="M225.549213,19.5551743 L225.549213,36.262103 C225.549213,37.738287 226.75573,38.9350222 228.24398,38.9350222 L269.997747,38.9350222 L226.237628,17.7861218 C225.814233,18.2581849 225.549213,18.8739194 225.549213,19.5551743" id="Fill-127" fill="url(#linearGradient-5)"></path>
                <path d="M323.275503,42.6104044 L280.79512,42.6104044 C279.993693,42.6104044 279.282198,42.964057 278.788768,43.514271 L322.548091,64.6631714 L323.275503,64.6631714 C324.763753,64.6631714 325.97027,63.4664362 325.97027,61.9902522 L325.97027,45.2833235 C325.97027,43.8071396 324.763753,42.6104044 323.275503,42.6104044" id="Fill-128" fill="url(#linearGradient-30)"></path>
                <path d="M278.100194,45.2834025 L278.100194,61.9903312 C278.100194,63.4665151 279.306711,64.6632503 280.794961,64.6632503 L322.548728,64.6632503 L278.788609,43.51435 C278.365214,43.9864131 278.100194,44.6013581 278.100194,45.2834025" id="Fill-129" fill="url(#linearGradient-5)"></path>
                <path d="M270.724523,42.6104044 L228.244139,42.6104044 C227.442713,42.6104044 226.731218,42.964057 226.237787,43.514271 L269.997906,64.6631714 L270.724523,64.6631714 C272.212773,64.6631714 273.41929,63.4664362 273.41929,61.9902522 L273.41929,45.2833235 C273.41929,43.8071396 272.212773,42.6104044 270.724523,42.6104044" id="Fill-130" fill="url(#linearGradient-30)"></path>
                <path d="M225.549213,45.2834025 L225.549213,61.9903312 C225.549213,63.4665151 226.75573,64.6632503 228.24398,64.6632503 L269.997747,64.6632503 L226.237628,43.51435 C225.814233,43.9864131 225.549213,44.6013581 225.549213,45.2834025" id="Fill-131" fill="url(#linearGradient-5)"></path>
                <path d="M323.275503,16.8821762 L280.79512,16.8821762 C279.993693,16.8821762 279.282198,17.2358288 278.788768,17.7860429 L322.548091,38.9349432 L323.275503,38.9349432 C324.763753,38.9349432 325.97027,37.738208 325.97027,36.2620241 L325.97027,19.5550954 C325.97027,18.0789114 324.763753,16.8821762 323.275503,16.8821762" id="Fill-132" fill="url(#linearGradient-30)"></path>
                <path d="M278.100194,19.5551743 L278.100194,36.262103 C278.100194,37.738287 279.306711,38.9350222 280.794961,38.9350222 L322.548728,38.9350222 L278.788609,17.7861218 C278.365214,18.2581849 278.100194,18.8739194 278.100194,19.5551743" id="Fill-133" fill="url(#linearGradient-5)"></path>
                <polygon id="Fill-135" fill="url(#linearGradient-31)" points="332.334966 15.8796342 387.580873 15.8796342 387.580873 9.86517143 332.334966 9.86517143"></polygon>
                <path d="M442.152929,9.86532931 L362.652528,9.86532931 C360.048488,9.86532931 357.937083,7.7710427 357.937083,5.18732612 C357.937083,2.60439894 360.048488,0.509322926 362.652528,0.509322926 L442.152929,0.509322926 C444.757765,0.509322926 446.86917,2.60439894 446.86917,5.18732612 C446.86917,7.7710427 444.757765,9.86532931 442.152929,9.86532931" id="Fill-136" fill="url(#linearGradient-21)"></path>
                <polygon id="Fill-137" fill="url(#linearGradient-32)" points="332.335364 78.6967073 371.777171 78.6967073 332.335364 30.232089"></polygon>
                <polygon id="Fill-138" fill="url(#linearGradient-33)" points="332.335364 15.8797131 332.335364 30.2326416 371.777171 78.6964705 376.391542 78.6964705 379.496174 15.8797131"></polygon>
                <polygon id="Fill-139" fill="url(#linearGradient-6)" points="372.085565 15.8796342 438.11054 15.8796342 438.11054 9.86517143 372.085565 9.86517143"></polygon>
                <polygon id="Fill-140" fill="url(#linearGradient-21)" points="372.085326 78.6967073 411.527133 78.6967073 372.085326 30.232089"></polygon>
                <polygon id="Fill-141" fill="url(#linearGradient-34)" points="372.085326 15.8797131 372.085326 30.2326416 411.527133 78.6964705 438.110301 78.6964705 438.110301 15.8797131"></polygon>
                <path d="M429.107981,69.3410167 L381.761736,69.3410167 C380.882316,69.3410167 380.170025,68.6337114 380.170025,67.7622103 L380.170025,17.4582827 C380.170025,16.5867816 380.882316,15.8794763 381.761736,15.8794763 L429.107981,15.8794763 C429.986606,15.8794763 430.699692,16.5867816 430.699692,17.4582827 L430.699692,67.7622103 C430.699692,68.6337114 429.986606,69.3410167 429.107981,69.3410167" id="Fill-142" fill="url(#linearGradient-35)"></path>
                <path d="M391.442782,23.2305565 L419.426617,23.2305565 C419.659624,22.831222 420.094988,22.5625636 420.5936,22.5625636 L423.962456,22.5625636 C424.706581,22.5625636 425.30984,23.1609312 425.30984,23.8990231 C425.30984,24.6371151 424.706581,25.2354827 423.962456,25.2354827 L420.5936,25.2354827 C420.094791,25.2354827 419.65928,24.9666118 419.426341,24.5670161 L391.443058,24.5670161 C391.210119,24.9666118 390.774608,25.2354827 390.2758,25.2354827 L386.907739,25.2354827 C386.163614,25.2354827 385.559559,24.6371151 385.559559,23.8990231 C385.559559,23.1609312 386.163614,22.5625636 386.907739,22.5625636 L390.2758,22.5625636 C390.774411,22.5625636 391.209775,22.831222 391.442782,23.2305565 Z" id="Combined-Shape" fill="url(#linearGradient-36)"></path>
                <path d="M414.715331,55.3074808 L396.827681,55.3074808 C395.069636,55.3074808 393.644258,53.8936597 393.644258,52.1498681 L393.644258,25.0520254 C393.644258,23.3082338 395.069636,21.8944127 396.827681,21.8944127 L414.715331,21.8944127 C416.473376,21.8944127 417.898753,23.3082338 417.898753,25.0520254 L417.898753,52.1498681 C417.898753,53.8936597 416.473376,55.3074808 414.715331,55.3074808" id="Fill-148" fill="url(#linearGradient-37)"></path>
                <polygon id="Fill-149" fill="url(#linearGradient-38)" points="393.644497 45.951948 417.898992 45.951948 417.898992 43.2790289 393.644497 43.2790289"></polygon>
                <polygon id="Fill-150" fill="url(#linearGradient-38)" points="393.644497 50.6291618 417.898992 50.6291618 417.898992 47.9562427 393.644497 47.9562427"></polygon>
            </g>
            <g id="地面" transform="translate(0.000000, 325.532787)" fill="url(#linearGradient-1)">
                <path d="M265.602734,9.9131513 C262.690557,9.9131513 260.328643,7.84103267 260.328643,5.28444252 L260.328643,4.7459694 C260.328643,2.18937925 262.690557,0.117260622 265.602734,0.117260622 L412.411757,0.117260622 C415.324813,0.117260622 417.685847,2.18937925 417.685847,4.7459694 L417.685847,5.28444252 C417.685847,7.84103267 415.324813,9.9131513 412.411757,9.9131513 L265.602734,9.9131513 Z" id="Fill-152"></path>
                <path d="M4.95768718,9.9131513 C2.32276796,9.9131513 0.187163544,7.84103267 0.187163544,5.28444252 L0.187163544,4.7459694 C0.187163544,2.18937925 2.32276796,0.117260622 4.95768718,0.117260622 L443.246448,0.117260622 C445.881367,0.117260622 448.016971,2.18937925 448.016971,4.7459694 L448.016971,5.28444252 C448.016971,7.84103267 445.881367,9.9131513 443.246448,9.9131513 L4.95768718,9.9131513 Z" id="Fill-155"></path>
            </g>
        </g>
    </g>
</svg>