<?xml version="1.0" standalone="no"?><!DOCTYPE svg PUBLIC "-//W3C//DTD SVG 1.1//EN" "http://www.w3.org/Graphics/SVG/1.1/DTD/svg11.dtd"><svg t="1580992924310" class="icon" viewBox="0 0 1024 1024" version="1.1" xmlns="http://www.w3.org/2000/svg" p-id="6011" width="32" height="32" xmlns:xlink="http://www.w3.org/1999/xlink"><defs><style type="text/css"></style></defs><path d="M746.00671536 373.05851261H373.05851261c-14.6254198 0-29.25083961-7.31270913-29.25083805-21.93812894 0-14.6254198 14.6254198-21.93812893 29.25083805-21.93812891h372.94820275c14.6254198 0 29.25083961 7.31270913 29.25083805 21.93812891 0 7.31270913-14.6254198 21.93812893-29.25083805 21.93812894zM248.74244659 351.12038367c0 7.31270913 7.31270913 14.6254198 14.62541982 14.62541982 7.31270913 7.31270913 14.6254198 7.31270913 21.93812892 0 7.31270913 0 14.6254198-7.31270913 14.62541981-14.62541982 0-14.6254198-7.31270913-21.93812893-21.9381305-21.93812891-14.6254198-7.31270913-29.25083961 7.31270913-29.25083805 21.93812891zM746.00671536 512H373.05851261c-14.6254198 0-29.25083961-7.31270913-29.25083805-21.93812893 0-14.6254198 14.6254198-21.93812893 29.25083805-21.93813047h372.94820275c14.6254198 0 29.25083961 7.31270913 29.25083805 21.93813047 0 14.6254198-14.6254198 21.93812893-29.25083805 21.93812893zM248.74244659 490.06187107c0 7.31270913 7.31270913 14.6254198 14.62541982 21.93812893h21.93812892c7.31270913-7.31270913 14.6254198-14.6254198 14.62541981-21.93812893 0-14.6254198-7.31270913-21.93812893-21.9381305-21.93813047-14.6254198 0-29.25083961 7.31270913-29.25083805 21.93813047zM746.00671536 702.13045594H373.05851261c-14.6254198 0-29.25083961-7.31270913-29.25083805-21.9381305 0-14.6254198 14.6254198-21.93812893 29.25083805-21.93812893h372.94820275c14.6254198 0 29.25083961 7.31270913 29.25083805 21.93812893 0 7.31270913-14.6254198 21.93812893-29.25083805 21.9381305zM248.74244659 672.87961633c0 7.31270913 7.31270913 14.6254198 14.62541982 21.93812891 7.31270913 7.31270913 14.6254198 7.31270913 21.93812892 0 7.31270913-7.31270913 14.6254198-14.6254198 14.62541981-21.93812891 0-14.6254198-7.31270913-21.93812893-21.9381305-21.93812894-14.6254198 0-29.25083961 14.6254198-29.25083805 21.93812894z" p-id="6012" fill="#2c2c2c"></path><path d="M811.82110371 987.32613984H212.17889629c-65.81438835 0-109.69064778-51.18896854-109.69064621-109.69064779V153.67721863c0-65.81438835 51.18896854-109.69064778 109.69064621-109.69064777h599.64220742c65.81438835 0 109.69064778 51.18896854 109.69064621 109.69064777V877.63549205c0 58.50167924-51.18896854 109.69064778-109.69064621 109.69064779zM212.17889629 95.17553939c-29.25083961 0-58.50167924 21.93812893-58.50167766 58.50167924V877.63549205c0 29.25083961 29.25083961 58.50167924 58.50167766 58.50167767h599.64220742c29.25083961 0 58.50167924-29.25083961 58.50167766-58.50167767V153.67721863c0-29.25083961-29.25083961-58.50167924-58.50167766-58.50167924H212.17889629z" p-id="6013" fill="#2c2c2c"></path></svg>