<?xml version="1.0" standalone="no"?><!DOCTYPE svg PUBLIC "-//W3C//DTD SVG 1.1//EN" "http://www.w3.org/Graphics/SVG/1.1/DTD/svg11.dtd"><svg t="1580970063607" class="icon" viewBox="0 0 1024 1024" version="1.1" xmlns="http://www.w3.org/2000/svg" p-id="5330" width="48" height="48" xmlns:xlink="http://www.w3.org/1999/xlink"><defs><style type="text/css"></style></defs><path d="M950.044444 250.311111L517.688889 0h-11.377778L73.955556 250.311111c-5.688889 0-5.688889 5.688889-5.688889 11.377778v494.933333c0 5.688889 5.688889 11.377778 5.688889 11.377778L506.311111 1024h11.377778l432.355555-250.311111c5.688889-5.688889 5.688889-5.688889 5.688889-11.377778V261.688889c0-5.688889 0-11.377778-5.688889-11.377778z m-147.911111 392.533333c0 17.066667-17.066667 34.133333-34.133333 34.133334h-512c-17.066667 0-34.133333-17.066667-34.133333-34.133334V381.155556c0-17.066667 17.066667-34.133333 34.133333-34.133334h119.466667c28.444444-73.955556 113.777778-113.777778 193.422222-85.333333 39.822222 17.066667 73.955556 45.511111 85.333333 85.333333h119.466667c17.066667 0 34.133333 17.066667 34.133333 34.133334l-5.688889 261.688888zM284.444444 608.711111h455.111112V415.288889H284.444444v193.422222z m227.555556-130.844444c0-11.377778 5.688889-17.066667 17.066667-17.066667h130.844444c11.377778 0 17.066667 5.688889 17.066667 17.066667v62.577777c0 11.377778-5.688889 17.066667-17.066667 17.066667H529.066667c-11.377778 0-17.066667-5.688889-17.066667-11.377778V477.866667z m-113.777778-11.377778c28.444444 0 45.511111 22.755556 45.511111 45.511111 0 28.444444-22.755556 45.511111-45.511111 45.511111s-45.511111-17.066667-45.511111-45.511111 22.755556-45.511111 45.511111-45.511111z m62.577778-142.222222c0 28.444444 22.755556 51.2 51.2 51.2s51.2-22.755556 51.2-51.2-22.755556-51.2-51.2-51.2-51.2 28.444444-51.2 51.2z" p-id="5331" fill="#1296db"></path></svg>