<?xml version="1.0" standalone="no"?><!DOCTYPE svg PUBLIC "-//W3C//DTD SVG 1.1//EN" "http://www.w3.org/Graphics/SVG/1.1/DTD/svg11.dtd"><svg t="1581057364757" class="icon" viewBox="0 0 1024 1024" version="1.1" xmlns="http://www.w3.org/2000/svg" p-id="4492" width="16" height="16" xmlns:xlink="http://www.w3.org/1999/xlink"><defs><style type="text/css"></style></defs><path d="M908.7 830.3H115.9c-39.7 0-72-32.3-72-72V448.2c0-13.3 10.7-24 24-24s24 10.7 24 24v310.1c0 13.2 10.8 24 24 24h792.8c13.2 0 24-10.8 24-24V214.4c0-13.2-10.8-24-24-24H115.9c-13.2 0-24 10.8-24 24v66.4l419.4 179.1 309.7-161c11.8-6.1 26.3-1.5 32.4 10.2 6.1 11.8 1.5 26.3-10.2 32.4L513.3 512.9 43.9 312.4v-98c0-39.7 32.3-72 72-72h792.8c39.7 0 72 32.3 72 72v543.9c0 39.7-32.3 72-72 72z" fill="#333333" p-id="4493"></path></svg>