<?xml version="1.0" standalone="no"?><!DOCTYPE svg PUBLIC "-//W3C//DTD SVG 1.1//EN" "http://www.w3.org/Graphics/SVG/1.1/DTD/svg11.dtd"><svg t="1581148791749" class="icon" viewBox="0 0 1024 1024" version="1.1" xmlns="http://www.w3.org/2000/svg" p-id="4580" width="16" height="16" xmlns:xlink="http://www.w3.org/1999/xlink"><defs><style type="text/css"></style></defs><path d="M463.2 64c54.1 0 105.8 10.6 155.1 31.7s91.8 49.5 127.4 85.1c35.6 35.6 64 78 85.1 127.4 21.1 49.3 31.7 101 31.7 155.1 0 46.4-7.6 90.9-22.7 133.4s-36.7 81.1-64.6 115.7l172.1 171.8c8.5 8.5 12.8 19.1 12.8 31.5 0 12.7-4.2 23.3-12.6 31.7-8.4 8.4-19 12.6-31.7 12.6-12.5 0-23-4.3-31.5-12.8l-172-172.1c-34.7 27.9-73.2 49.5-115.7 64.6-42.5 15.1-87 22.7-133.4 22.7-54.1 0-105.8-10.6-155.1-31.7s-91.8-49.5-127.4-85.1c-35.6-35.6-64-78-85.1-127.4C74.6 569 64 517.3 64 463.2c0-54 10.5-105.7 31.7-155.1 21.2-49.3 49.5-91.8 85.1-127.4 35.6-35.6 78-63.9 127.4-85.1 49.3-21 101-31.6 155-31.6z m0 88.7c-42.1 0-82.2 8.2-120.6 24.6-38.3 16.4-71.4 38.5-99.1 66.2-27.7 27.7-49.8 60.8-66.2 99.1-16.4 38.3-24.6 78.5-24.6 120.6 0 42.1 8.2 82.2 24.6 120.6 16.4 38.3 38.5 71.4 66.2 99.1 27.7 27.7 60.8 49.8 99.1 66.2 38.4 16.4 78.5 24.6 120.6 24.6 42.1 0 82.3-8.2 120.6-24.6 38.3-16.4 71.4-38.5 99.1-66.2 27.7-27.7 49.8-60.8 66.2-99.1 16.4-38.4 24.6-78.5 24.6-120.6 0-42.1-8.2-82.3-24.6-120.6-16.4-38.3-38.5-71.4-66.2-99.1-27.7-27.7-60.8-49.8-99.1-66.2-38.3-16.4-78.5-24.6-120.6-24.6z m0 0" p-id="4581" fill="#ffffff"></path></svg>