<?xml version="1.0" standalone="no"?><!DOCTYPE svg PUBLIC "-//W3C//DTD SVG 1.1//EN" "http://www.w3.org/Graphics/SVG/1.1/DTD/svg11.dtd"><svg t="1583649414425" class="icon" viewBox="0 0 1025 1024" version="1.1" xmlns="http://www.w3.org/2000/svg" p-id="8562" xmlns:xlink="http://www.w3.org/1999/xlink" width="48.046875" height="48"><defs><style type="text/css"></style></defs><path d="M512 512m-512 0a512 512 0 1 0 1024 0 512 512 0 1 0-1024 0Z" fill="#CCE5FF" p-id="8563"></path><path d="M655.271058 704.806659H379.076935c-17.446975 0-31.596351 14.144261-31.596351 31.589958 0 17.440582 14.149376 31.602744 31.596351 31.602744h269.697378c15.32572 0 27.745102-12.419382 27.745103-27.75661v-35.436092h-21.248358z" fill="#939FAA" p-id="8564"></path><path d="M637.859885 389.637182l-66.054287-45.658779h-80.652464l82.768605 99.718191v261.110065h102.598955V463.390131a89.67707 89.67707 0 0 0-38.660809-73.752949z" fill="#5CADFF" p-id="8565"></path><path d="M481.669498 332.342824c-11.622793-14.125081-30.625867-19.836744-48.148282-14.485657l-5.718056 1.754288-44.358407 13.458912-33.202317 10.055186a2.189023 2.189023 0 0 0-1.237719 3.273306l96.911587 155.855385a3.412677 3.412677 0 0 0 4.406177 1.276077l10.402975-5.027593 20.818736-10.085873 61.438414-29.74233 30.899495-14.945965-92.212603-111.385736z" fill="#C9E5EE" p-id="8566"></path><path d="M481.669498 332.342824c-11.622793-14.125081-30.625867-19.836744-48.148282-14.485657l-5.718056 1.754288-44.358407 13.458912-33.202317 10.055186a2.189023 2.189023 0 0 0-1.237719 3.273306l96.911587 155.855385a3.412677 3.412677 0 0 0 4.406177 1.276077l10.402975-5.027593 20.818736-10.085873 61.438414-29.74233 30.899495-14.945965-92.212603-111.385736z" fill="#2D8CF0" p-id="8567"></path><path d="M460.725456 498.50145v48.62777c0 0.391262 0.323495 0.716036 0.716035 0.716035h80.826358c0.391262 0 0.716036-0.323495 0.716036-0.716035v-88.455974l-82.258429 39.828204z" fill="#5CADFF" p-id="8568"></path><path d="M427.80316 319.611455l-44.358407 13.458912-32.082232-52.117165a3.030365 3.030365 0 0 1 0.989663-4.156842l32.94659-20.340527a3.012464 3.012464 0 0 1 4.155563 0.970484l38.348823 62.185138zM655.271058 535.93477c0 16.762906-13.584219 30.358632-30.345846 30.358632-16.769299 0-30.352239-13.595727-30.352239-30.358632s13.58294-30.358632 30.352239-30.358633c16.761627 0 30.345846 13.595727 30.345846 30.358633zM517.010971 573.958819h-30.310044a0.148322 0.148322 0 0 1-0.147043-0.147043v-25.967799h30.600294v25.971635a0.141928 0.141928 0 0 1-0.143207 0.143207z" fill="#FFD026" p-id="8569"></path></svg>