<?xml version="1.0" standalone="no"?><!DOCTYPE svg PUBLIC "-//W3C//DTD SVG 1.1//EN" "http://www.w3.org/Graphics/SVG/1.1/DTD/svg11.dtd"><svg t="1583649380808" class="icon" viewBox="0 0 1024 1024" version="1.1" xmlns="http://www.w3.org/2000/svg" p-id="7005" xmlns:xlink="http://www.w3.org/1999/xlink" width="48" height="48"><defs><style type="text/css"></style></defs><path d="M512 512m-512 0a512 512 0 1 0 1024 0 512 512 0 1 0-1024 0Z" fill="#AD5ED9" p-id="7006"></path><path d="M591.968 607.936c26.592 0 48.096 21.504 47.84 47.872 0 26.4-21.504 47.904-47.84 47.904a47.968 47.968 0 0 1-47.872-47.904c0-26.368 21.248-47.872 47.872-47.872z m0 64c8.96 0 15.872-7.168 15.872-15.872a15.936 15.936 0 0 0-15.872-15.872 15.936 15.936 0 0 0-15.872 15.872c0 8.704 7.168 15.904 15.872 15.904z m169.12 11.04c4.096 8.192 6.912 17.152 6.912 27.136 0 29.984-20.736 54.816-46.816 57.888H308.448c-28.896 0-52.192-25.856-52.448-57.888 0-11.52 4.096-22.016 9.472-30.976l-0.256-0.512 150.944-262.784V287.776h-10.72c-11.776 0-21.248-7.168-21.248-15.904 0-8.96 9.472-16.128 21.248-15.872h213.376c11.776 0 21.248 7.168 21.248 15.872 0 8.736-9.472 15.904-21.248 15.904h-10.752v127.808l153.536 266.624-0.512 0.768zM443.84 431.68l-27.392 48.16h191.904l-27.872-48.416a31.52 31.52 0 0 1-4.352-15.872V287.776h-127.936v128.064a31.52 31.52 0 0 1-4.352 15.872zM718.88 736c8.448-2.08 17.12-11.808 16.896-25.888 0-3.84-1.28-7.936-3.584-12.8-0.768-1.536-1.28-3.072-1.792-4.608l-103.904-180.8h-228.48l-102.368 178.24c-0.768 1.792-1.536 3.584-2.56 5.376a28.16 28.16 0 0 0-4.864 14.592c0 14.08 9.216 25.888 20.224 25.888h410.432z m-238.72-192.096a32 32 0 1 1-0.064 64 32 32 0 0 1 0.032-64z" fill="#FFFFFF" p-id="7007"></path></svg>