<?xml version="1.0" standalone="no"?><!DOCTYPE svg PUBLIC "-//W3C//DTD SVG 1.1//EN" "http://www.w3.org/Graphics/SVG/1.1/DTD/svg11.dtd"><svg t="1583649453513" class="icon" viewBox="0 0 1024 1024" version="1.1" xmlns="http://www.w3.org/2000/svg" p-id="10082" xmlns:xlink="http://www.w3.org/1999/xlink" width="48" height="48"><defs><style type="text/css"></style></defs><path d="M512 512m-512 0a512 512 0 1 0 1024 0 512 512 0 1 0-1024 0Z" fill="#CCE5FF" p-id="10083"></path><path d="M482.592 706.71232H535.04v28.34176h-52.448z" fill="#939FAA" p-id="10084"></path><path d="M535.04 735.05408h-63.21408L422.62528 768h172.38912l-45.22752-32.94592z" fill="#FF7A65" p-id="10085"></path><path d="M535.04 735.05408h-63.21408L422.62528 768h172.38912l-45.22752-32.94592z" fill="#FFD026" p-id="10086"></path><path d="M607.11808 256.8768a6.41792 6.41792 0 0 0-4.89728-0.65792 6.4576 6.4576 0 0 0-3.94112 2.99776l-3.59424 6.1952a6.46016 6.46016 0 0 0 2.3488 8.8384c3.08096 1.80096 7.03744 0.73984 8.82944-2.33984l0.30464-0.52224c95.71456 59.57248 127.46624 185.26976 70.45504 283.4112-57.02016 98.1376-181.96224 132.80256-281.10208 79.15776l1.00736-1.7344a6.46144 6.46144 0 0 0-2.33984-8.8384c-3.07968-1.80096-7.03616-0.74112-8.8384 2.33984l-4.30976 7.4048a6.49472 6.49472 0 0 0-0.65536 4.91008 6.43712 6.43712 0 0 0 2.99392 3.92832c35.12064 20.40704 73.53856 30.10304 111.50208 30.0928 0.2432 0 0.4864-0.02432 0.73216-0.02432v34.66496H521.984v-36.33664c66.91968-8.18048 129.41184-46.42048 165.81632-109.07008 61.67552-106.16832 25.48864-242.7328-80.68224-304.41728z" fill="#939FAA" p-id="10087"></path><path d="M558.65984 627.63136a189.408 189.408 0 0 0 28.7808-13.0368 122.1504 122.1504 0 0 0 2.38848-1.36192 186.05312 186.05312 0 0 0 9.14176-5.61664c0.33536-0.21504 0.66432-0.41216 0.99328-0.62976a188.83072 188.83072 0 0 0 10.04928-7.18464c0.40576-0.3072 0.7936-0.61824 1.18656-0.93184a184.8512 184.8512 0 0 0 9.0752-7.5072c0.20224-0.17792 0.41216-0.34944 0.61568-0.5312a187.88224 187.88224 0 0 0 18.62016-19.13088 189.52064 189.52064 0 0 0 16.12672-22.17088v-0.0064c0.91648-1.46944 1.85984-2.91712 2.74304-4.41728 0.89344-1.52192 1.70368-3.06432 2.54208-4.59648v-0.0064c13.9904-25.44768 21.50656-52.7808 23.0656-80.0832v-0.10112a189.72288 189.72288 0 0 0-7.43296-64.25088c-0.02432-0.0832-0.04352-0.16896-0.0768-0.25216a187.7632 187.7632 0 0 0-5.13408-15.008c-0.07424-0.19072-0.15104-0.37504-0.2176-0.55936a193.19296 193.19296 0 0 0-6.44736-14.59968c0-0.0192-0.01792-0.03072-0.01792-0.04352a188.30848 188.30848 0 0 0-27.10528-40.5824c-0.15104-0.16512-0.28544-0.33536-0.43648-0.50176a189.42336 189.42336 0 0 0-11.13472-11.58912c-0.18688-0.18176-0.38144-0.35584-0.56576-0.53504a187.31008 187.31008 0 0 0-12.4416-10.82496v-0.00256a191.58144 191.58144 0 0 0-22.18624-15.232l-0.01792-0.00256v-0.0064a0.0704 0.0704 0 0 1-0.02432-0.01152c-33.2416-19.45984-69.97504-27.5904-105.75872-25.62304h-0.00896c-3.02848 0.16896-6.0416 0.40832-9.05728 0.71552 0 0-0.00896 0-0.01536 0.0064-3.01312 0.30976-6.0096 0.69248-8.98816 1.14304-0.00896 0.00256-0.01792 0.00256-0.03712 0.00256-2.97856 0.45568-5.94176 0.98048-8.9024 1.5744-0.00896 0.0064-0.0192 0.0064-0.03456 0.0064-5.9264 1.19296-11.78624 2.67136-17.57568 4.42368l-0.01792 0.00256c-2.89664 0.8768-5.75872 1.8176-8.6016 2.83136-0.00896 0.0064-0.0192 0.0064-0.02816 0.0064a189.39136 189.39136 0 0 0-28.74368 13.02784c-0.79872 0.44288-1.58336 0.90112-2.37312 1.35552a186.304 186.304 0 0 0-9.152 5.61408c-0.3264 0.21504-0.66432 0.41472-0.98432 0.6336a182.35264 182.35264 0 0 0-10.06848 7.18464c-0.38656 0.3008-0.7744 0.6144-1.16224 0.91648a188.99456 188.99456 0 0 0-9.07136 7.5008c-0.21248 0.18432-0.42112 0.36224-0.6336 0.5504a188.1408 188.1408 0 0 0-18.47552 18.94912c-0.04992 0.05248-0.09216 0.11392-0.14208 0.16512a189.90208 189.90208 0 0 0-16.1216 22.16192v0.00256c-0.92544 1.4848-1.88416 2.94272-2.76992 4.4608-0.88192 1.50656-1.67552 3.03488-2.5152 4.55296v0.0064a189.38112 189.38112 0 0 0-11.44832 24.89472c-0.03328 0.0704-0.05248 0.1408-0.08576 0.21504a188.16512 188.16512 0 0 0-7.49824 25.38112c-0.0576 0.27136-0.11008 0.53504-0.15872 0.80512a182.83136 182.83136 0 0 0-2.11584 11.56224c-0.07424 0.50432-0.16 1.00864-0.23424 1.51936a188.1792 188.1792 0 0 0-1.35552 12.25984c-0.02432 0.39936-0.03456 0.8-0.06784 1.20192a201.47328 201.47328 0 0 0-0.43648 13.4656 188.224 188.224 0 0 0 2.68416 31.41504c0 0.00512 0.00896 0.01536 0.00896 0.02432 0.50432 2.97856 1.08544 5.9456 1.7344 8.89984v0.0064a193.96736 193.96736 0 0 0 2.16448 8.81408c0.00512 0.0064 0.00512 0.01536 0.00512 0.02432a199.6032 199.6032 0 0 0 2.57664 8.68096c0 0.0128 0.00896 0.02432 0.0192 0.03712 0.92544 2.87104 1.91744 5.7216 2.97856 8.54656 0 0.0128 0.00896 0.02176 0.01536 0.03456 1.06112 2.8224 2.1888 5.6256 3.39456 8.39936 0.00896 0.01152 0.00896 0.02432 0.01536 0.03328a201.77792 201.77792 0 0 0 3.79648 8.24576l0.00896 0.0064a187.86944 187.86944 0 0 0 51.90144 64.49024l0.00896 0.00256a190.2656 190.2656 0 0 0 22.19008 15.2384c7.86048 4.60544 15.91552 8.5312 24.09856 11.8848a187.82208 187.82208 0 0 0 72.53248 14.04672h0.00896c3.03744-0.02176 6.07744-0.11392 9.09952-0.27648 0.01536-0.0064 0.01536-0.0064 0.03456-0.0064 3.01312-0.16256 6.02496-0.4032 9.03808-0.7104 0.01792-0.0064 0.03456-0.0064 0.05248-0.0064a192.6656 192.6656 0 0 0 8.97408-1.14304c0.01536-0.00256 0.03456-0.00256 0.04864-0.00896a186.8416 186.8416 0 0 0 8.90624-1.568c0.01536-0.0064 0.03328-0.0064 0.04864-0.00896 2.94784-0.59264 5.88416-1.25696 8.80384-1.99552l0.06144-0.01152a187.31008 187.31008 0 0 0 8.69376-2.40768c0.02432-0.00896 0.04352-0.01152 0.06784-0.01792a192.0256 192.0256 0 0 0 8.57856-2.83136z" fill="#71BFFF" p-id="10088"></path><path d="M587.30496 490.11712c2.00448-3.65184 3.98976-7.31392 5.84064-10.96832a395.392 395.392 0 0 0 4.02432-8.18944 350.32064 350.32064 0 0 0 4.30976-9.32736l0.54656-1.22112c1.0176-2.272 2.03776-4.5376 2.97856-6.79424a354.7968 354.7968 0 0 0 5.69984-14.49472c0.80896-2.17984 1.53088-4.33536 2.25664-6.496l0.50432-1.53344c1.05984-3.1232 2.08768-6.24384 3.03104-9.33376l0.53888-1.632c22.89664 8.77696 44.76288 15.29472 65.01632 19.36768 0.67328 0.1472 1.24544 0.0832 1.82656 0.03072-0.26752-5.05088-0.71296-10.0736-1.39008-15.072-19.34336-4.0512-40.01408-10.28992-61.52064-18.60224 9.40032-38.72256 8.72704-73.1904-1.98016-97.34784-0.4544-1.03552-0.91648-1.95456-1.37088-2.8928-1.56416-1.33376-3.02208-2.75072-4.63872-4.03968a191.58144 191.58144 0 0 0-22.18624-15.232l-0.01792-0.00256v-0.0064a0.0704 0.0704 0 0 1-0.02432-0.01152c-9.62304-5.632-19.55584-10.20672-29.64736-13.96992-1.15328 0.06528-2.28992 0.12544-3.55968 0.24576-26.17984 2.46528-56.57472 18.73792-85.74976 45.86624-17.7536-14.67648-33.29024-29.64992-46.2976-44.53888a191.76064 191.76064 0 0 0-13.86112 6.14528c0.20864 0.4672 0.46976 1.02656 0.9408 1.56416 13.43488 15.65696 29.81632 31.55072 48.68864 47.24224l-1.16224 1.26976a324.77696 324.77696 0 0 0-6.66752 7.20512l-1.19552 1.3312c-1.48864 1.64096-2.97984 3.28064-4.4608 5.00736a369.2544 369.2544 0 0 0-9.8496 12.05376c-1.50656 1.93664-2.97856 3.9296-4.4608 5.92512l-0.79872 1.07008a382.51136 382.51136 0 0 0-6.0352 8.33408 383.19872 383.19872 0 0 0-5.1776 7.5072c-2.28096 3.40864-4.50304 6.91968-6.7072 10.464-0.4736 0.75648-0.96 1.4976-1.44768 2.23872-0.26112 0.40192-0.52224 0.80896-0.7936 1.21984l-76.50432-44.82176c-0.38784 0.60928-0.81792 1.17376-1.20576 1.78944v0.00256c-0.92544 1.4848-1.88416 2.94272-2.76992 4.4608-0.88192 1.50656-1.67552 3.03488-2.5152 4.55296v0.0064c-0.35328 0.63232-0.6336 1.28768-0.97792 1.92768l76.48 44.79488c-13.76896 24.51072-24.41856 49.25824-31.6736 73.63584-22.87872-8.76416-44.7232-15.26912-64.9664-19.35232-0.68864-0.1472-1.26976-0.08576-1.84192-0.03072 0.26752 5.05472 0.73728 10.08 1.4144 15.08864 19.34848 4.05504 40.02304 10.29632 61.51424 18.60224-10.0096 41.21216-8.55296 76.56576 3.77856 100.77952 1.39008 1.17376 2.7456 2.37952 4.17536 3.51616l0.00896 0.00256a190.2656 190.2656 0 0 0 22.19008 15.2384c7.86048 4.60544 15.91552 8.5312 24.09856 11.8848 1.83552 0.75648 3.71072 1.2736 5.56416 1.96224 27.08608-1.12256 58.45888-17.25824 89.35808-45.99936 17.73824 14.66752 33.29408 29.6512 46.31552 44.56064a189.792 189.792 0 0 0 13.85216-6.14784c-0.20864-0.46976-0.45184-1.0304-0.9408-1.59488-13.43488-15.65696-29.7984-31.52384-48.63744-47.19488 17.71904-18.26688 34.0992-39.65824 48.72832-63.64544l76.4736 44.8064c0.39296-0.61184 0.82432-1.18016 1.21088-1.792v-0.0064c0.91648-1.46944 1.85984-2.91712 2.74304-4.41728 0.89344-1.52192 1.70368-3.06432 2.54208-4.59648v-0.0064c0.34688-0.62976 0.64256-1.28128 0.97664-1.91872l-76.51328-44.82176c0.21888-0.42112 0.44544-0.85248 0.67328-1.28128 0.40448-0.7936 0.81024-1.57696 1.24672-2.36672z m5.7728-193.03936c19.93344 17.28896 25.10976 55.42272 13.9328 103.10656-19.3856-8.18048-38.76352-17.74336-57.6448-28.47616l43.712-74.6304z m-12.77568-7.4816l-43.712 74.62016c-18.57792-11.21152-36.40832-23.42528-53.02912-36.3456 36.12672-33.06496 71.92576-47.2064 96.74112-38.27456z m-107.50848 48.66048c17.34784 13.60896 36.27904 26.61632 56.32896 38.6944l-36.56448 62.43072-67.30752-39.4176c14.24384-23.2832 30.21952-44.03072 47.54304-61.70752z m-55.00032 74.43584l67.30624 39.42656-36.58368 62.43456c-20.09344-11.43296-40.70784-21.56544-61.312-30.16064 6.94528-23.76448 17.2224-47.86304 30.58944-71.70048z m-20.44672 189.22624c-19.9232-17.2928-25.10976-55.42144-13.9328-103.10784 19.36128 8.17408 38.73792 17.74336 57.6448 28.48512l-43.712 74.62272z m12.77696 7.48288l43.712-74.624c18.58688 11.21152 36.41728 23.43552 53.03296 36.34944-36.11264 33.07264-71.90272 47.20512-96.74496 38.27456z m107.47648-48.6272c-17.58464-13.78176-36.50944-26.80448-56.29824-38.72896l36.57344-62.44352 67.29728 39.4304c-14.25664 23.32288-30.24896 44.08064-47.57248 61.74208z m55.04128-74.47936l-67.30624-39.42656 36.56704-62.4256c20.35072 11.58144 40.95744 21.7344 61.312 30.21056-6.95424 23.74528-17.2224 47.82848-30.5728 71.6416z" fill="#2D8CF0" p-id="10089"></path></svg>