<?xml version="1.0" standalone="no"?><!DOCTYPE svg PUBLIC "-//W3C//DTD SVG 1.1//EN" "http://www.w3.org/Graphics/SVG/1.1/DTD/svg11.dtd"><svg t="1583649497893" class="icon" viewBox="0 0 1024 1024" version="1.1" xmlns="http://www.w3.org/2000/svg" p-id="12195" xmlns:xlink="http://www.w3.org/1999/xlink" width="48" height="48"><defs><style type="text/css"></style></defs><path d="M459.699661 322.887862h-11.516333l-10.762929 166.502507a5.381464 5.381464 0 0 1-10.762929 1.183923 77.493087 77.493087 0 0 0-43.051715-43.697491 26.046288 26.046288 0 0 0-27.875985 5.811981 38.423656 38.423656 0 0 0-7.856938 42.40594 41.222017 41.222017 0 0 0 22.60215 20.664823 49.294214 49.294214 0 0 1 26.692063 25.61577 33.472708 33.472708 0 0 1 0 15.929135 30.459088 30.459088 0 0 0 1.183923 22.494521 26.153917 26.153917 0 0 0 18.619866 7.318791 33.365079 33.365079 0 0 0 30.997235-19.696159 5.381464 5.381464 0 0 1 5.919611-2.905991 5.596723 5.596723 0 0 1 6.02724 2.905991 33.580338 33.580338 0 0 0 31.104864 19.696159 26.046288 26.046288 0 0 0 18.512237-7.318791 30.459088 30.459088 0 0 0 1.50681-22.494521 33.472708 33.472708 0 0 1 0-15.929135 49.294214 49.294214 0 0 1 26.692064-25.61577A41.222017 41.222017 0 0 0 559.794898 495.094722a38.423656 38.423656 0 0 0-8.072196-42.29831 26.046288 26.046288 0 0 0-27.875985-5.811982 77.493087 77.493087 0 0 0-43.051715 43.697491 5.489094 5.489094 0 0 1-5.811982 3.874654 5.273835 5.273835 0 0 1-4.735689-5.058576z" fill="#E72427" p-id="12196"></path><path d="M810.678767 274.347053H226.144108A26.799693 26.799693 0 0 0 199.667303 301.362004v376.702506A26.799693 26.799693 0 0 0 226.144108 705.18709h584.534659A26.799693 26.799693 0 0 0 837.37083 678.06451V301.362004a26.799693 26.799693 0 0 0-26.692063-27.014951z m-582.92022 204.495646a5.381464 5.381464 0 0 1 5.381464-5.381464 5.489094 5.489094 0 0 1 5.381465 5.381464v55.321454a5.489094 5.489094 0 0 1-5.381465 5.381464 5.381464 5.381464 0 0 1-5.381464-5.381464z m581.198152 132.92217A55.213824 55.213824 0 0 1 754.173391 667.301581H282.864742a55.213824 55.213824 0 0 1-55.106195-55.213824V581.198152a5.381464 5.381464 0 0 1 5.381464-5.381465 5.381464 5.381464 0 0 1 5.381465 5.381465v30.889605A44.450896 44.450896 0 0 0 282.864742 656.538653h31.212494c-3.767025-10.762929-7.53405-19.803789-10.762929-27.553098-8.395084-19.158013-13.884178-32.288786-6.242499-53.814644a49.078955 49.078955 0 0 1 34.441372-31.320122 5.273835 5.273835 0 0 1 6.350128 4.089913 5.381464 5.381464 0 0 1-4.089913 6.457757 38.100768 38.100768 0 0 0-26.584434 24.21659c-6.242499 18.08172-2.152586 27.445468 6.02724 46.065335 3.551766 8.287455 7.964567 18.619867 12.269739 32.288786h254.866152a323.426008 323.426008 0 0 1 12.377368-32.288786c8.072197-18.619867 12.162109-27.983615 5.919611-46.065335a38.531285 38.531285 0 0 0-26.584434-24.21659 5.381464 5.381464 0 0 1-4.089913-6.457757 5.381464 5.381464 0 0 1 6.350128-4.089913 49.401843 49.401843 0 0 1 34.549001 31.320122c7.53405 21.525857 2.044956 34.656631-6.350127 53.814644-3.336508 7.749309-7.103533 16.467281-10.762929 27.553098h162.520224a44.450896 44.450896 0 0 0 44.343266-44.450896V367.338758A44.343266 44.343266 0 0 0 754.173391 322.887862H470.46259l9.256119 146.591089a96.866359 96.866359 0 0 1 39.930465-32.288786 36.701587 36.701587 0 0 1 39.499949 7.641679 48.863696 48.863696 0 0 1 10.762928 53.814644 51.231541 51.231541 0 0 1-27.553097 26.692063c-9.579007 5.273835-18.512237 10.762929-21.525858 19.69616a30.889605 30.889605 0 0 0 0.861035 10.762929 37.993138 37.993138 0 0 1-3.659396 30.781976 35.087148 35.087148 0 0 1-26.046288 11.516334h-3.767025a41.975422 41.975422 0 0 1-34.333742-19.69616A41.652534 41.652534 0 0 1 419.876825 597.98832h-3.767025a35.087148 35.087148 0 0 1-26.046288-11.516333 37.993138 37.993138 0 0 1-3.659395-30.781977 33.903226 33.903226 0 0 0 0.861034-10.762928c-3.336508-9.471377-12.269739-14.422325-21.525858-19.69616a51.231541 51.231541 0 0 1-27.553097-26.692063 48.863696 48.863696 0 0 1 10.762929-53.814644 36.701587 36.701587 0 0 1 39.499948-7.641679 96.866359 96.866359 0 0 1 39.930466 32.288786L437.420399 322.887862H282.864742a44.343266 44.343266 0 0 0-44.343266 44.343266v65.223348a5.489094 5.489094 0 0 1-5.381465 5.381465 5.381464 5.381464 0 0 1-5.381464-5.381465v-65.115718A55.106195 55.106195 0 0 1 282.864742 312.124933h471.308649a55.106195 55.106195 0 0 1 55.106195 55.106195z m-60.272401-205.249051H607.044156a9.471377 9.471377 0 1 1 0-18.835125h141.640142a9.471377 9.471377 0 0 1 0 18.835125z m9.363748 49.617102a9.363748 9.363748 0 0 1-9.363748 9.471377H638.256649a9.471377 9.471377 0 1 1 0-18.835125h110.427649a9.363748 9.363748 0 0 1 9.363748 9.363748z" fill="#E72427" p-id="12197"></path><path d="M512.115124 0a511.99252 511.99252 0 1 0 511.884891 511.99252A511.99252 511.99252 0 0 0 512.115124 0zM688.950043 840.046588H348.19572a9.471377 9.471377 0 1 1 0-18.835126h160.905784v-64.577572a9.471377 9.471377 0 1 1 18.835125 0v64.577572H688.950043a9.471377 9.471377 0 1 1 0 18.835126zM856.205956 678.06451a45.634818 45.634818 0 0 1-45.527189 45.634818H226.144108A45.527189 45.527189 0 0 1 180.832178 678.06451V301.362004A45.527189 45.527189 0 0 1 226.144108 255.511928h584.534659A45.634818 45.634818 0 0 1 856.205956 301.362004z" fill="#E72427" p-id="12198"></path></svg>