<?xml version="1.0" standalone="no"?><!DOCTYPE svg PUBLIC "-//W3C//DTD SVG 1.1//EN" "http://www.w3.org/Graphics/SVG/1.1/DTD/svg11.dtd"><svg t="1583649295458" class="icon" viewBox="0 0 1024 1024" version="1.1" xmlns="http://www.w3.org/2000/svg" p-id="3039" width="48" height="48" xmlns:xlink="http://www.w3.org/1999/xlink"><defs><style type="text/css"></style></defs><path d="M512 512m-512 0a512 512 0 1 0 1024 0 512 512 0 1 0-1024 0Z" fill="#CCE5FF" p-id="3040"></path><path d="M324.96128 412.31232h90.31936v64.26752h-90.31936z" fill="#FFD026" p-id="3041"></path><path d="M608.73216 476.57856v133.30048c0 53.33504-43.39072 96.72192-96.72448 96.72192-53.33504 0-96.72576-43.38688-96.72576-96.72192V476.57856h-90.31936v133.30048c0 103.14112 83.904 187.03232 187.04512 187.03232 103.13088 0 187.03104-83.8912 187.03104-187.03232V476.57856h-90.30656z" fill="#2D8CF0" p-id="3042"></path><path d="M608.73216 412.31232h90.30656v64.26752h-90.30656z" fill="#FFD026" p-id="3043"></path><path d="M696.90368 293.67936a7.28704 7.28704 0 0 0-6.1312-3.34848h-50.26688l25.83168-52.74624a7.27552 7.27552 0 0 0-3.33184-9.7536c-3.6352-1.76768-7.98208-0.27776-9.74592 3.3408l-30.976 63.24096a7.2256 7.2256 0 0 0 0.36096 7.06304 7.26656 7.26656 0 0 0 6.176 3.43168h50.63168l-26.28992 57.72928a7.27552 7.27552 0 0 0 6.62784 10.29376 7.28704 7.28704 0 0 0 6.64064-4.27008l30.976-68.02304a7.29344 7.29344 0 0 0-0.50304-6.95808zM399.72608 290.33088h-50.27072l25.83552-52.74624a7.2768 7.2768 0 0 0-3.3344-9.7536 7.2832 7.2832 0 0 0-9.7472 3.3408l-30.97472 63.24096a7.23584 7.23584 0 0 0 0.35968 7.06304 7.28064 7.28064 0 0 0 6.17984 3.43168h50.63168l-26.28992 57.72928a7.27552 7.27552 0 0 0 6.624 10.29376 7.28704 7.28704 0 0 0 6.64448-4.27008l30.976-68.02304a7.28576 7.28576 0 0 0-6.63424-10.30656z" fill="#56697A" p-id="3044"></path></svg>